<?xml version="1.0" encoding="UTF-8"?><svg id="Layer_1" xmlns="http://www.w3.org/2000/svg" viewBox="0 0 130.28 130.53"><defs><style>.cls-1{fill:#f7f6f7;}</style></defs><path class="cls-1" d="m63.92,2.69l-.76-1.18-.27.3.02.9h-.51s-.06-2.64-.06-2.64h.51s.02,1.07.02,1.07l.92-1.1.67-.02-.95,1.07,1.03,1.58-.63.02Z"/><path class="cls-1" d="m66.19,2.7l-1.03-1.8-.03,1.78h-.48s.04-2.66.04-2.66h.55s.96,1.73.96,1.73l.03-1.71h.48s-.04,2.66-.04,2.66h-.48Z"/><path class="cls-1" d="m68.29.9c-.01-.27-.16-.41-.47-.43-.29-.01-.45.09-.46.29,0,.17.1.27.37.35.28.08.54.17.72.26.21.11.38.29.36.66-.03.58-.45.83-1.02.8-.61-.03-1.02-.34-1.01-.93l.5.02c0,.27.2.45.53.46.31.01.49-.12.5-.35,0-.16-.06-.27-.37-.35-.3-.09-.5-.14-.67-.23-.26-.14-.4-.34-.39-.67.02-.48.34-.8.94-.77.63.03.96.41.96.92l-.49-.02Z"/><path class="cls-1" d="m69.45,2.84l.16-2.18-.74-.06.03-.46,2,.15-.03.46-.75-.05-.16,2.18-.52-.04Z"/><path class="cls-1" d="m72.24,3.1l.07-.68c.03-.25-.05-.36-.35-.4l-.55-.06-.11,1.04-.5-.05.28-2.64,1.24.13c.45.05.72.41.67.85-.03.28-.18.51-.43.57.21.1.28.24.24.55l-.08.75-.5-.05Zm-.7-2.29l-.08.71.64.07c.27.03.39-.11.42-.31.02-.21-.07-.37-.32-.39l-.66-.07Z"/><path class="cls-1" d="m74.43,3.39l-.56-1.29-.31.25-.13.89-.5-.07.38-2.62.5.07-.15,1.07,1.09-.93.66.1-1.11.9.76,1.73-.62-.09Z"/><path class="cls-1" d="m75.79,3.61l.38-2.16-.73-.13.08-.46,1.98.35-.08.46-.74-.13-.38,2.16-.51-.09Z"/><path class="cls-1" d="m77.89,4.01l-.26-2.77.54.12.14,1.93.91-1.71.52.11-1.37,2.42-.48-.1Z"/><path class="cls-1" d="m83.08,3.38c.05-.27-.06-.44-.36-.52-.28-.08-.46-.01-.51.18-.05.16.03.28.28.43.25.15.49.29.64.42.18.16.3.36.2.73-.16.56-.63.7-1.18.54-.59-.17-.92-.56-.76-1.14l.48.14c-.07.26.09.48.41.57.29.08.5,0,.57-.23.04-.15,0-.27-.28-.43-.27-.15-.45-.25-.6-.38-.22-.2-.31-.42-.22-.74.13-.46.51-.7,1.1-.54.6.17.84.62.72,1.11l-.47-.13Z"/><path class="cls-1" d="m83.73,5.53l.66-2.09-.71-.23.14-.44,1.91.61-.14.44-.71-.23-.66,2.09-.49-.16Z"/><path class="cls-1" d="m87.31,3.94l.5.18-.59,1.67c-.22.61-.67.8-1.29.58-.57-.2-.82-.61-.6-1.22l.61-1.7.49.18-.59,1.65c-.11.31-.03.56.24.65.31.11.52,0,.64-.32l.59-1.67Z"/><path class="cls-1" d="m87.07,6.68l.98-2.47.89.35c.62.25.89.88.59,1.63-.3.75-.9,1.1-1.5.87l-.96-.38Zm1.03-.08c.42.17.71-.04.93-.6.22-.56.13-.85-.33-1.04l-.36-.14-.64,1.62.4.16Z"/><path class="cls-1" d="m89.15,7.51l1.03-2.44.48.2-1.03,2.44-.48-.2Z"/><path class="cls-1" d="m90.3,6.57c.37-.82.98-1.14,1.67-.82.69.31.85.98.48,1.81-.38.83-.95,1.09-1.64.77-.69-.31-.88-.95-.51-1.76Zm1.69.78c.26-.57.18-.97-.21-1.15-.4-.18-.75.02-1.01.59-.26.57-.15.93.24,1.11.34.15.72.02.98-.55Z"/><path class="cls-1" d="m101.19,12.92l.23-.32,1.76,1.27-.23.32-1.76-1.26Z"/><path class="cls-1" d="m111.2,23.03l1-1.46-1.53.89-.33-.36,1.47-2.32.38.4-.98,1.46,1.49-.92.37.4-1,1.44,1.53-.87.36.39-2.42,1.29-.34-.37Z"/><path class="cls-1" d="m112.05,23.98l2.02-1.72,1.18,1.38-.35.3-.85-1-.43.37.78.92-.36.3-.78-.92-.52.44.89,1.04-.36.31-1.21-1.42Z"/><path class="cls-1" d="m116.59,28.21c-.55.28-1.1.21-1.44-.25-.39-.52-.3-1.2.43-1.75.72-.54,1.43-.51,1.85.05.37.49.26,1.06-.14,1.42l-.31-.41c.2-.24.21-.52.06-.72-.26-.34-.66-.29-1.13.06-.47.35-.63.72-.39,1.04.18.24.44.28.75.14l.31.41Z"/><path class="cls-1" d="m116.72,30.01l.56-.39c.21-.15.24-.28.07-.52l-.31-.45-.85.59-.29-.41,2.18-1.51.71,1.03c.26.38.16.81-.2,1.06-.23.16-.5.19-.72.05.06.22,0,.37-.25.54l-.62.43-.29-.42Zm1.27-2.02l-.58.4.37.53c.16.23.34.23.5.11.17-.12.23-.29.09-.5l-.38-.55Z"/><path class="cls-1" d="m117.11,30.58l2.23-1.44.98,1.53-.39.25-.71-1.1-.48.31.65,1.02-.39.25-.66-1.02-.57.37.74,1.15-.4.26-1.02-1.58Z"/><path class="cls-1" d="m119.06,33.7l.39-.42-.47-.78-.56.13-.28-.47,2.73-.61.31.51-1.83,2.11-.29-.48Zm1.45-1.59h0s-1.07.27-1.07.27l.32.54.75-.81Z"/><path class="cls-1" d="m119.41,34.31l1.91-1.08-.37-.65.4-.23.99,1.75-.4.23-.37-.65-1.91,1.08-.25-.45Z"/><path class="cls-1" d="m120.09,35.52l2.35-1.23.84,1.61-.41.21-.61-1.16-.5.26.56,1.07-.42.22-.56-1.07-.61.32.64,1.22-.42.22-.87-1.66Z"/><path class="cls-1" d="m121.86,39.04l2.43-1.07.39.88c.27.61.01,1.25-.72,1.57-.74.33-1.42.16-1.67-.43l-.42-.95Zm.79.67c.18.41.54.47,1.09.22.55-.24.69-.52.49-.97l-.16-.35-1.6.71.17.39Z"/><path class="cls-1" d="m122.75,41.09l2.45-1.01.2.48-2.45,1.01-.2-.48Z"/><path class="cls-1" d="m123.68,43.42l.24-.1c-.25-.03-.48-.25-.6-.56-.25-.64.24-1.29.93-1.55.73-.28,1.47-.12,1.76.63.21.55.03,1.11-.46,1.33l-.19-.48c.22-.11.32-.42.22-.68-.15-.38-.57-.52-1.16-.29-.41.16-.8.52-.62.97.12.32.48.46.79.34l-.2-.51.42-.16.37.96-1.33.51-.15-.4Z"/><path class="cls-1" d="m123.89,44l2.5-.89.17.49-2.5.89-.17-.49Z"/><path class="cls-1" d="m124.33,45.26l2.08-.69-.24-.71.44-.15.63,1.9-.44.15-.24-.71-2.08.69-.16-.49Z"/><path class="cls-1" d="m125.07,47.6l.48-.31-.27-.87h-.58s-.16-.53-.16-.53l2.8.07.17.57-2.29,1.6-.16-.54Zm1.79-1.18h0s-1.1,0-1.1,0l.18.6.92-.6Z"/><path class="cls-1" d="m125.25,48.23l2.56-.69.13.5-2.1.56.32,1.18-.47.13-.45-1.69Z"/><path class="cls-1" d="m126.18,51.94l2.6-.53.36,1.78-.46.09-.26-1.29-.56.11.24,1.19-.46.09-.24-1.19-.67.14.27,1.35-.46.09-.37-1.84Z"/><path class="cls-1" d="m126.81,55.35l.82-.61-.98-.34-.1-.59,1.47.56,1.16-.96.1.6-.78.58.92.3.1.59-1.38-.53-1.23,1.02-.1-.62Z"/><path class="cls-1" d="m126.93,56.06l2.63-.34.14,1.08c.06.48-.27.84-.75.9-.48.06-.87-.2-.93-.68l-.08-.57-.96.12-.07-.51Zm1.54.82c.04.29.22.4.45.37.22-.03.36-.17.33-.47l-.06-.49-.77.1.06.49Z"/><path class="cls-1" d="m127.19,58.02l2.64-.26.18,1.81-.46.05-.13-1.31-.57.06.12,1.21-.47.05-.12-1.2-.68.07.14,1.37-.47.05-.18-1.87Z"/><path class="cls-1" d="m127.48,61.4l.68-.05c.26-.02.35-.11.33-.41l-.04-.55-1.04.07-.04-.5,2.65-.18.09,1.25c.03.46-.28.78-.71.81-.28.02-.53-.09-.64-.33-.06.22-.19.31-.5.34l-.75.05-.04-.5Zm2.13-1.08l-.71.05.04.65c.02.27.17.37.38.35.21-.01.35-.13.33-.38l-.05-.66Z"/><path class="cls-1" d="m127.51,62.09l2.65-.12.02.52-2.65.12-.02-.52Z"/><path class="cls-1" d="m127.55,62.78l2.65-.07.04,1.82h-.46s-.03-1.3-.03-1.3l-.57.02.03,1.21h-.47s-.03-1.2-.03-1.2l-.68.02.03,1.37h-.47s-.05-1.86-.05-1.86Z"/><path class="cls-1" d="m127.58,66.28l1.8-1.03-1.78-.03v-.48s2.66.04,2.66.04v.55s-1.73.96-1.73.96l1.71.03v.48s-2.66-.04-2.66-.04v-.48Z"/><path class="cls-1" d="m128.4,69.13c-.6-.13-.98-.53-.96-1.11.03-.65.52-1.12,1.43-1.08.9.04,1.43.5,1.4,1.21-.03.62-.47.99-1,1.02l.02-.52c.3-.06.49-.27.5-.52.02-.43-.33-.64-.91-.67-.59-.02-.94.16-.96.56-.01.31.17.5.5.58l-.02.52Z"/><path class="cls-1" d="m127.48,69.18l2.64.2-.13,1.81-.46-.04.1-1.31-.57-.04-.09,1.21-.47-.04.09-1.21-.68-.05-.1,1.37-.47-.04.14-1.87Z"/><path class="cls-1" d="m129.05,72.72c.27,0,.42-.13.46-.44.03-.29-.06-.45-.26-.47-.17-.02-.27.08-.38.34-.1.27-.2.53-.31.7-.13.2-.31.36-.68.31-.58-.06-.8-.5-.73-1.07.06-.61.4-1,1-.94l-.05.49c-.27-.02-.46.17-.5.5-.03.3.09.49.32.52.16.02.27-.05.38-.34.1-.29.17-.49.28-.65.16-.25.36-.38.7-.34.47.05.78.39.72.98-.07.62-.47.93-.97.89l.05-.49Z"/><path class="cls-1" d="m126.08,83.2l.37.12-.65,2.08-.37-.12.65-2.08Z"/><path class="cls-1" d="m119.8,95.55l1.4-.07-.12-.38-.79-.43.24-.45,2.33,1.27-.24.45-.95-.51.5,1.34-.32.59-.46-1.36-1.89.11.3-.55Z"/><path class="cls-1" d="m118.68,97.49h2.08s-1.54-.91-1.54-.91l.24-.41,2.29,1.35-.28.47-1.97-.02,1.47.87-.25.42-2.29-1.35.24-.41Z"/><path class="cls-1" d="m119.18,100.22c.24.12.44.07.6-.2.16-.25.14-.43-.02-.54-.14-.09-.28-.05-.49.14-.21.2-.42.39-.59.49-.2.13-.43.18-.75-.02-.49-.31-.49-.8-.18-1.29.33-.52.8-.72,1.31-.41l-.27.42c-.23-.14-.49-.05-.67.23-.16.26-.14.48.06.61.13.08.26.08.49-.14.22-.22.37-.36.54-.46.25-.15.49-.18.77,0,.4.26.53.69.2,1.2-.33.53-.83.63-1.27.37l.26-.42Z"/><path class="cls-1" d="m116.91,100.25l1.81,1.24.42-.61.38.26-1.13,1.66-.38-.26.42-.62-1.81-1.24.29-.43Z"/><path class="cls-1" d="m115.28,102.55l.55.4c.21.15.34.14.52-.1l.33-.45-.84-.62.3-.41,2.15,1.57-.74,1.01c-.27.37-.71.42-1.07.16-.23-.17-.35-.42-.28-.66-.19.13-.35.12-.6-.06l-.61-.44.3-.41Zm2.33.54l-.57-.42-.38.52c-.16.22-.1.39.06.51.17.12.35.13.5-.08l.39-.54Z"/><path class="cls-1" d="m113.94,104.29l1.39.16-.06-.4-.71-.56.32-.4,2.09,1.64-.32.4-.85-.67.26,1.41-.41.53-.22-1.42-1.88-.21.39-.5Z"/><path class="cls-1" d="m113.07,105.36l1.67,1.41.48-.57.35.3-1.29,1.53-.35-.3.48-.57-1.67-1.41.33-.39Z"/><path class="cls-1" d="m111.68,106.97l2.54,1.16-.37.41-1.75-.85,1.03,1.65-.36.4-1.42-2.41.33-.36Z"/><path class="cls-1" d="m109.65,111.77c.21.18.41.17.63-.05.21-.2.24-.39.1-.53-.12-.12-.26-.11-.51.03-.25.14-.5.28-.69.34-.23.08-.46.08-.73-.19-.41-.42-.29-.89.12-1.29.44-.43.95-.51,1.37-.09l-.36.35c-.2-.19-.46-.16-.7.07-.22.21-.25.44-.08.6.11.11.24.14.51-.03.27-.16.44-.26.63-.33.28-.09.52-.06.75.18.33.34.35.79-.08,1.21-.45.44-.95.42-1.32.07l.35-.34Z"/><path class="cls-1" d="m107.44,111.28l1.48,1.61.55-.5.31.34-1.48,1.36-.31-.34.55-.51-1.48-1.61.38-.35Z"/><path class="cls-1" d="m107.06,115.16l-.4.34-1.15-1.35c-.42-.49-.35-.98.14-1.4.45-.39.94-.41,1.35.08l1.17,1.37-.4.34-1.14-1.33c-.21-.25-.47-.3-.68-.12-.25.22-.27.45-.04.71l1.15,1.34Z"/><path class="cls-1" d="m104.79,113.6l1.65,2.08-.75.6c-.52.42-1.2.33-1.71-.3-.5-.63-.51-1.33,0-1.73l.81-.64Zm-.45.93c-.35.28-.32.64.06,1.11.37.47.67.54,1.06.23l.3-.24-1.08-1.36-.33.27Z"/><path class="cls-1" d="m103.04,114.98l1.61,2.12-.41.31-1.61-2.12.41-.31Z"/><path class="cls-1" d="m103.27,116.46c.53.73.49,1.42-.12,1.86-.62.44-1.27.25-1.81-.49-.53-.74-.47-1.37.15-1.81.62-.44,1.25-.29,1.78.44Zm-1.51,1.07c.37.51.75.64,1.1.39.35-.25.36-.66-.01-1.17-.37-.51-.73-.59-1.08-.34-.3.22-.38.62-.01,1.13Z"/><path class="cls-1" d="m92.36,122.75l.16.36-1.98.9-.16-.36,1.98-.9Z"/><path class="cls-1" d="m78.61,126.38l.76,1.6v-1.77s.47-.11.47-.11l1.27,2.44-.54.12-.78-1.59.05,1.76-.53.12-.75-1.6v1.77s-.53.12-.53.12l.09-2.75.49-.11Z"/><path class="cls-1" d="m77.36,126.65l.49,2.61-1.79.33-.08-.46,1.29-.24-.1-.56-1.19.22-.09-.46,1.19-.22-.13-.67-1.35.25-.09-.46,1.85-.34Z"/><path class="cls-1" d="m71.41,128.47c.03-.61.37-1.05.94-1.12.64-.08,1.19.34,1.3,1.24.11.89-.27,1.49-.97,1.57-.61.07-1.05-.3-1.16-.83l.51-.06c.11.29.34.44.59.41.42-.05.58-.43.51-1-.07-.58-.31-.9-.71-.86-.3.04-.46.25-.5.58l-.51.06Z"/><path class="cls-1" d="m69.77,127.68l.06.68c.02.25.12.35.42.32l.55-.04-.09-1.04.5-.04.22,2.64-1.25.1c-.46.04-.78-.26-.82-.7-.02-.28.08-.53.32-.64-.23-.06-.32-.18-.34-.49l-.06-.75.5-.04Zm1.12,2.11l-.06-.71-.65.05c-.27.02-.37.18-.35.38.02.21.13.35.39.32l.66-.05Z"/><path class="cls-1" d="m69.08,127.73l.13,2.66-1.81.09-.02-.46,1.31-.06-.03-.57-1.21.06-.02-.47,1.21-.06-.03-.68-1.37.07-.02-.47,1.87-.09Z"/><path class="cls-1" d="m65.41,127.86l.16.54h.91s.17-.57.17-.57h.55s-.84,2.66-.84,2.66h-.6s-.91-2.63-.91-2.63h.56Zm.65,2.04h0l.3-1.06h-.63s.33,1.06.33,1.06Z"/><path class="cls-1" d="m64.72,127.86l-.03,2.19h.74s0,.48,0,.48l-2.01-.03v-.46s.76.01.76.01l.03-2.19h.52Z"/><path class="cls-1" d="m63.34,127.84l-.11,2.66-1.82-.08.02-.46,1.31.05.02-.57-1.21-.05.02-.47,1.21.05.03-.68-1.37-.06.02-.47,1.88.08Z"/><path class="cls-1" d="m59.4,127.62l-.28,2.64-.95-.1c-.67-.07-1.08-.61-1-1.42.09-.8.57-1.3,1.21-1.24l1.03.11Zm-.97.35c-.45-.05-.67.23-.74.83-.06.6.1.86.59.91l.38.04.19-1.74-.42-.05Z"/><path class="cls-1" d="m57.17,127.37l-.34,2.63-.51-.07.34-2.63.51.07Z"/><path class="cls-1" d="m54.68,127.02l-.03.26c.15-.2.45-.29.79-.24.68.1,1,.85.89,1.58-.12.77-.63,1.33-1.42,1.21-.58-.09-.97-.53-.93-1.06l.51.08c-.01.25.2.48.48.53.41.06.73-.24.83-.86.07-.43-.06-.95-.53-1.03-.33-.05-.64.18-.69.51l.54.08-.07.44-1.02-.16.22-1.41.42.07Z"/><path class="cls-1" d="m54.09,126.91l-.48,2.61-.51-.09.48-2.61.51.09Z"/><path class="cls-1" d="m52.75,126.66l-.43,2.15.73.15-.09.46-1.97-.4.09-.46.73.15.43-2.15.51.1Z"/><path class="cls-1" d="m50.37,126.15l.03.57.89.2.29-.5.53.12-1.46,2.4-.58-.13-.25-2.79.55.12Zm.14,2.15h0s.55-.96.55-.96l-.61-.14.06,1.1Z"/><path class="cls-1" d="m49.74,125.99l-.68,2.56-.5-.13.56-2.1-1.18-.31.12-.47,1.69.44Z"/><path class="cls-1" d="m46.06,124.95l-.84,2.52-1.72-.57.15-.44,1.24.42.18-.54-1.15-.38.15-.44,1.15.38.22-.65-1.3-.43.15-.45,1.78.59Z"/><path class="cls-1" d="m42.78,123.8l.13,1.02.78-.68.57.21-1.22.99.26,1.48-.57-.21-.12-.96-.72.65-.56-.21,1.15-.94-.28-1.58.59.22Z"/><path class="cls-1" d="m42.1,123.54l-1.01,2.46-1.01-.42c-.45-.18-.59-.65-.41-1.1.18-.45.6-.65,1.05-.47l.53.22.37-.89.48.2Zm-1.48.93c-.28-.11-.45,0-.54.21-.08.2-.03.4.24.52l.46.19.3-.72-.46-.19Z"/><path class="cls-1" d="m40.29,122.8l-1.08,2.42-1.66-.75.19-.42,1.2.54.23-.52-1.11-.5.19-.43,1.11.5.28-.62-1.25-.56.19-.43,1.71.77Z"/><path class="cls-1" d="m37.21,121.36l-.3.62c-.11.23-.08.36.19.49l.5.24.46-.94.45.22-1.17,2.39-1.13-.55c-.41-.2-.54-.63-.34-1.02.12-.26.35-.42.6-.39-.16-.17-.18-.32-.04-.6l.33-.68.46.22Zm-.12,2.39l.31-.64-.58-.28c-.25-.12-.41-.03-.5.15-.09.19-.06.37.17.48l.6.29Z"/><path class="cls-1" d="m36.58,121.05l-1.22,2.36-.46-.24,1.22-2.36.46.24Z"/><path class="cls-1" d="m35.97,120.74l-1.27,2.33-1.59-.86.22-.41,1.15.62.27-.5-1.06-.58.22-.41,1.06.58.33-.6-1.2-.65.22-.41,1.65.89Z"/><path class="cls-1" d="m32.93,119.03v2.07s.91-1.54.91-1.54l.41.24-1.35,2.29-.47-.28.02-1.97-.87,1.47-.42-.24,1.35-2.29.41.24Z"/><path class="cls-1" d="m30.05,118.3c.41-.45.96-.58,1.44-.28.55.35.71,1.02.22,1.78-.48.76-1.15.98-1.75.6-.52-.33-.62-.9-.38-1.38l.44.28c-.1.29-.01.56.19.69.36.23.72.04,1.03-.45.32-.5.33-.9,0-1.11-.26-.16-.52-.11-.75.14l-.44-.28Z"/><path class="cls-1" d="m30.47,117.48l-1.5,2.19-1.5-1.03.26-.38,1.08.74.32-.47-1-.68.26-.39,1,.68.39-.56-1.13-.78.27-.39,1.55,1.06Z"/><path class="cls-1" d="m26.63,117.07c-.14.23-.09.43.16.62.23.17.42.17.54,0,.1-.14.07-.28-.11-.5-.18-.22-.36-.44-.45-.62-.11-.21-.15-.45.07-.75.35-.47.83-.44,1.3-.1.49.36.66.85.32,1.34l-.4-.29c.15-.22.08-.49-.18-.68-.25-.18-.47-.17-.61.02-.09.13-.1.26.11.5.2.24.33.39.43.56.14.26.14.5-.05.77-.28.39-.73.48-1.21.13-.5-.37-.57-.87-.29-1.29l.4.29Z"/><path class="cls-1" d="m19.04,109.27l-.29.27-1.48-1.59.29-.27,1.48,1.6Z"/><path class="cls-1" d="m11.45,97.68l-.63,1.25.39.08.77-.48.27.43-2.26,1.4-.27-.43.92-.57-1.41-.23-.35-.57,1.4.28.84-1.69.33.53Z"/><path class="cls-1" d="m10.31,95.73l-1.03,1.8,1.55-.88.24.42-2.31,1.32-.27-.48,1-1.7-1.49.85-.24-.42,2.31-1.32.24.41Z"/><path class="cls-1" d="m7.69,94.79c-.23.15-.27.35-.13.62.13.26.3.34.48.25.15-.08.18-.22.12-.5-.07-.28-.13-.55-.13-.76,0-.24.06-.47.39-.64.52-.27.94-.03,1.2.48.28.54.22,1.05-.3,1.34l-.23-.44c.24-.13.29-.4.13-.69-.14-.27-.35-.36-.55-.25-.14.07-.2.19-.12.5.08.3.13.5.13.7,0,.29-.09.51-.39.67-.42.22-.86.11-1.14-.42-.29-.55-.13-1.03.31-1.29l.23.43Z"/><path class="cls-1" d="m8.79,92.82l-1.97.96.32.67-.42.2-.87-1.8.42-.2.32.67,1.97-.96.22.46Z"/><path class="cls-1" d="m7.61,90.27l-.63.28c-.23.1-.29.23-.17.5l.22.5.95-.42.2.46-2.43,1.08-.51-1.15c-.19-.42,0-.83.39-1.01.26-.12.53-.09.71.08-.02-.23.07-.36.35-.49l.69-.31.21.46Zm-1.63,1.75l.65-.29-.26-.59c-.11-.25-.29-.29-.48-.2-.19.08-.28.24-.18.48l.27.61Z"/><path class="cls-1" d="m6.77,88.24l-.83,1.13.37.15.84-.34.19.47-2.46.99-.19-.47,1-.4-1.35-.47-.25-.62,1.33.51,1.12-1.53.23.58Z"/><path class="cls-1" d="m6.28,86.96l-2.06.75.25.7-.44.16-.68-1.89.44-.16.25.7,2.06-.75.18.49Z"/><path class="cls-1" d="m5.57,84.95l-2.26,1.62-.17-.52,1.6-1.09-1.94.07-.17-.51,2.78-.02.15.46Z"/><path class="cls-1" d="m2.43,80.79c-.26.09-.35.27-.27.58.07.28.22.4.41.35.16-.04.23-.17.23-.45,0-.29,0-.57.04-.77.05-.23.17-.44.53-.53.57-.14.92.19,1.06.75.15.59-.03,1.07-.6,1.23l-.12-.48c.26-.08.37-.32.29-.64-.08-.29-.25-.43-.48-.37-.15.04-.24.14-.23.45,0,.31,0,.52-.03.71-.06.29-.21.48-.53.56-.46.12-.87-.09-1.01-.67-.15-.6.11-1.03.6-1.18l.12.48Z"/><path class="cls-1" d="m3.96,79.13l-2.14.48.16.73-.45.1-.44-1.96.45-.1.16.73,2.14-.48.11.5Z"/><path class="cls-1" d="m.78,76.84l-.1-.52,1.74-.33c.63-.12,1.03.18,1.15.82.11.59-.12,1.02-.75,1.13l-1.78.33-.1-.52,1.72-.32c.32-.06.5-.26.45-.53-.06-.33-.26-.46-.6-.39l-1.74.32Z"/><path class="cls-1" d="m3.27,75.66l-2.62.4-.14-.95c-.1-.66.32-1.21,1.12-1.33.8-.12,1.4.22,1.5.85l.15,1.02Zm-.58-.85c-.07-.45-.39-.59-.99-.5-.59.09-.8.32-.73.81l.06.38,1.72-.26-.06-.42Z"/><path class="cls-1" d="m2.95,73.45l-2.63.33-.07-.51,2.63-.33.07.51Z"/><path class="cls-1" d="m1.56,72.94c-.9.09-1.48-.28-1.55-1.04-.08-.76.42-1.23,1.33-1.32.91-.09,1.42.28,1.49,1.04.08.76-.38,1.23-1.27,1.32Zm-.17-1.85c-.62.06-.93.33-.89.76.04.43.4.64,1.02.58.62-.06.88-.34.84-.76-.04-.37-.34-.64-.97-.58Z"/><path class="cls-1" d="m1.56,60.3l-.39-.04.2-2.17.39.04-.21,2.17Z"/><path class="cls-1" d="m5.25,46.58l-1.77-.14,1.54.88-.14.46-2.75-.11.16-.53,1.76.12-1.55-.83.16-.52,1.76.15-1.53-.89.15-.5,2.34,1.44-.14.48Z"/><path class="cls-1" d="m5.64,45.37l-2.5-.88.6-1.71.44.15-.44,1.24.54.19.4-1.14.44.16-.4,1.14.64.23.46-1.29.44.16-.62,1.77Z"/><path class="cls-1" d="m7.03,39.3c.51.33.73.85.5,1.37-.25.59-.89.86-1.73.5-.83-.35-1.16-.98-.88-1.62.24-.57.79-.76,1.3-.59l-.2.48c-.3-.05-.56.08-.65.3-.17.39.08.72.61.95.54.23.94.18,1.1-.19.12-.28.02-.52-.26-.72l.2-.48Z"/><path class="cls-1" d="m8.52,38.28l-.62-.29c-.23-.11-.36-.07-.49.2l-.24.5.94.44-.21.46-2.4-1.12.53-1.14c.2-.41.62-.55,1.02-.36.26.12.42.34.4.59.16-.17.32-.19.6-.05l.68.32-.22.46Zm-2.39-.08l.64.3.28-.59c.12-.25.03-.41-.16-.49-.19-.09-.37-.06-.48.18l-.28.6Z"/><path class="cls-1" d="m8.81,37.67l-2.37-1.21.83-1.62.41.21-.6,1.17.51.26.55-1.08.42.21-.55,1.08.61.31.62-1.22.42.21-.85,1.67Z"/><path class="cls-1" d="m10.54,34.41l-.55-.13-.44.8.39.42-.26.48-1.89-2.06.29-.52,2.74.53-.27.49Zm-2.1-.46h0s.77.79.77.79l.3-.55-1.07-.24Z"/><path class="cls-1" d="m10.88,33.82l-1.89-1.11-.38.64-.4-.24,1.02-1.73.4.24-.38.64,1.89,1.11-.26.45Z"/><path class="cls-1" d="m11.59,32.62l-2.25-1.42.97-1.53.39.25-.7,1.11.48.3.64-1.02.4.25-.64,1.02.58.37.73-1.16.4.25-1,1.58Z"/><path class="cls-1" d="m13.75,29.33l-2.15-1.56.56-.77c.39-.54,1.07-.64,1.72-.16s.85,1.14.47,1.66l-.61.84Zm.18-1.02c.26-.36.13-.7-.35-1.05-.49-.35-.79-.34-1.08.06l-.22.31,1.41,1.02.25-.35Z"/><path class="cls-1" d="m15.07,27.53l-2.11-1.61.31-.41,2.11,1.61-.31.41Z"/><path class="cls-1" d="m16.65,25.53l-.21-.16c.1.23.03.54-.19.8-.43.53-1.24.44-1.81-.02-.61-.49-.84-1.21-.34-1.83.37-.46.95-.58,1.38-.27l-.33.41c-.21-.13-.52-.07-.7.15-.26.32-.16.75.33,1.15.34.27.85.42,1.16.05.21-.26.16-.64-.09-.85l-.34.43-.35-.28.65-.8,1.11.89-.27.33Z"/><path class="cls-1" d="m17.02,25.08l-2.03-1.71.33-.39,2.03,1.71-.33.39Z"/><path class="cls-1" d="m17.9,24.06l-1.64-1.46-.49.56-.35-.31,1.33-1.51.35.31-.49.56,1.64,1.46-.34.39Z"/><path class="cls-1" d="m19.53,22.26l-.51-.26-.62.67.28.5-.37.4-1.35-2.45.41-.44,2.54,1.16-.38.41Zm-1.93-.95h0s.56.95.56.95l.43-.46-.98-.49Z"/><path class="cls-1" d="m19.99,21.78l-1.88-1.88.37-.37,1.54,1.53.86-.87.34.34-1.23,1.24Z"/><path class="cls-1" d="m22.74,19.11l-1.76-1.99,1.36-1.21.31.35-.98.87.38.42.9-.8.31.35-.9.8.45.51,1.02-.91.31.35-1.4,1.25Z"/><path class="cls-1" d="m25.37,16.83l-.95-.4.2,1.02-.46.39-.26-1.56-1.41-.52.47-.39.89.38-.21-.95.46-.38.24,1.46,1.5.55-.48.4Z"/><path class="cls-1" d="m25.93,16.37l-1.63-2.1.86-.67c.38-.3.86-.19,1.16.19.3.38.27.85-.12,1.14l-.45.35.59.76-.41.32Zm-.07-1.74c.24-.18.23-.39.09-.57-.13-.17-.33-.23-.57-.04l-.39.3.48.62.39-.3Z"/><path class="cls-1" d="m27.47,15.18l-1.56-2.15,1.47-1.07.27.38-1.06.78.33.46.98-.71.27.38-.98.71.4.55,1.11-.81.28.38-1.51,1.11Z"/><path class="cls-1" d="m30.25,13.21l-.38-.57c-.14-.21-.27-.25-.52-.08l-.46.31.58.86-.42.28-1.49-2.2,1.04-.7c.38-.26.81-.16,1.06.21.16.24.19.51.04.72.22-.06.37,0,.54.26l.42.62-.42.28Zm-2.01-1.29l.4.59.54-.36c.23-.15.23-.34.12-.5-.12-.17-.29-.24-.5-.09l-.55.37Z"/><path class="cls-1" d="m30.83,12.83l-1.44-2.23.43-.28,1.44,2.23-.43.28Z"/><path class="cls-1" d="m31.4,12.45l-1.4-2.26,1.54-.95.24.4-1.11.69.3.48,1.03-.63.25.4-1.03.63.36.58,1.17-.72.25.4-1.59.98Z"/><path class="cls-1" d="m34.41,10.66l-1.8-1.02.88,1.54-.42.24-1.32-2.3.48-.27,1.7.99-.85-1.48.42-.24,1.32,2.3-.41.24Z"/><path class="cls-1" d="m36.47,8.51c.19.58.03,1.12-.48,1.39-.57.3-1.23.11-1.66-.69-.42-.8-.28-1.49.34-1.82.55-.29,1.09-.1,1.38.36l-.46.24c-.2-.23-.48-.29-.7-.17-.38.2-.39.61-.12,1.12.27.52.61.73.97.55.27-.14.35-.4.26-.72l.46-.24Z"/><path class="cls-1" d="m36.97,9.29l-1.16-2.39,1.63-.79.2.42-1.18.57.25.51,1.09-.53.2.42-1.09.53.3.62,1.23-.6.21.42-1.68.82Z"/><path class="cls-1" d="m39.23,6.17c-.13-.24-.33-.3-.61-.17-.27.12-.36.28-.28.47.07.15.21.2.49.15.28-.05.56-.09.76-.08.24,0,.46.09.62.43.24.54-.03.94-.56,1.17-.56.25-1.06.15-1.32-.39l.46-.2c.12.25.38.31.68.18.28-.12.38-.32.29-.54-.06-.14-.18-.21-.49-.15-.31.06-.51.09-.7.09-.29,0-.51-.12-.65-.43-.19-.44-.06-.87.49-1.11.57-.25,1.04-.06,1.26.4l-.45.2Z"/><path class="cls-1" d="m49.79,3.47l-.09-.38,2.12-.48.09.38-2.12.48Z"/></svg>