<?xml version="1.0" encoding="UTF-8"?><svg id="Layer_1" xmlns="http://www.w3.org/2000/svg" viewBox="0 0 500 32.78"><defs><style>.cls-1{fill:#f7f6f7;}</style></defs><path class="cls-1" d="m485.64,0c-12.04,0-14.36,8.39-14.36,16.42s2.27,16.37,14.36,16.37,14.36-8.39,14.36-16.31-2.32-16.47-14.36-16.47Zm0,25.13c-5.07,0-5.38-4.01-5.38-8.71s.32-8.71,5.38-8.71,5.33,3.96,5.33,8.76-.26,8.66-5.33,8.66ZM458.14.53v31.78h8.87V.53h-8.87Zm-18.48,0h-11.88v31.78h11.4c9.66,0,14.47-6.55,14.47-16.1s-4.49-15.68-13.99-15.68Zm-1.58,24.18h-1.43V8.13h1.64c4.33,0,6.65.84,6.65,8.02s-2.53,8.55-6.86,8.55ZM413.84.53v17.79c0,5.07-1,6.6-4.38,6.6s-4.38-1.53-4.38-6.6V.53h-8.92v17.79c0,9.93,3.8,14.47,13.3,14.47s13.3-4.54,13.3-14.47V.53h-8.92Zm-43.34,0v7.6h6.97v24.18h8.76V8.13h7.02V.53h-22.75Zm-11.72,12.62c-3.01-.84-6.12-1.48-6.12-3.85,0-1.37,1.11-2.22,3.48-2.22,2.8,0,3.96,1.21,3.96,4.22h8.71c0-7.6-4.28-11.3-12.46-11.3s-12.46,3.54-12.46,9.87,4.17,7.81,9.87,9.56c4.65,1.43,6.7,1.74,6.7,3.85,0,1.74-1.37,2.59-3.8,2.59-3.11,0-4.49-1.32-4.49-4.54h-8.87c0,7.65,4.28,11.46,12.78,11.46s13.09-4.07,13.09-10.29c0-5.12-2.96-7.29-10.4-9.34ZM213.6.53l-5.97,22.75-5.81-22.75h-9.56l.05.16,10.14,31.62h10.19L223.1.53h-9.5Zm-43.98,0v7.6h6.97v24.18h8.76V8.13h6.97V.53h-22.7Zm-10.72,15.2l10.61-15.2h-11.56l-6.39,12.35V.53h-8.82v31.78h8.82v-13.88l7.02,13.88h11.46l-11.14-16.58Zm-26.92,4.96c4.43-.9,6.34-4.75,6.34-9.03,0-4.54-1-11.14-12.56-11.14h-11.51v31.78h8.87v-11.77l6.39,11.77h11.03l-8.55-11.61Zm-6.55-5.54h-2.32v-7.02h2.32c3.17,0,3.96,1.21,3.96,3.54,0,2.16-.74,3.48-3.96,3.48ZM88.11.53v7.6h6.97v24.18h8.82V8.13h6.97V.53h-22.75Zm-11.72,12.62c-3.01-.84-6.12-1.48-6.12-3.85,0-1.37,1.11-2.22,3.48-2.22,2.8,0,3.96,1.21,3.96,4.22h8.76c0-7.6-4.33-11.3-12.51-11.3s-12.46,3.54-12.46,9.87,4.17,7.81,9.87,9.56c4.65,1.43,6.7,1.74,6.7,3.85,0,1.74-1.37,2.59-3.75,2.59-3.17,0-4.54-1.32-4.54-4.54h-8.87c0,7.65,4.28,11.46,12.78,11.46s13.09-4.07,13.09-10.29c0-5.12-2.96-7.29-10.4-9.34ZM47.94.53v17.58L39.22.53h-10.19v31.78h8.97V15.1l8.97,17.21h9.87V.53h-8.92Zm-31.73,15.2L26.77.53h-11.56l-6.34,12.35V.53H0v31.78h8.87v-13.88l6.97,13.88h11.51l-11.14-16.58Z"/></svg>