<?xml version="1.0" encoding="UTF-8"?><svg id="Layer_1" xmlns="http://www.w3.org/2000/svg" viewBox="0 0 156.69 32.78"><defs><style>.cls-1{fill:#f7f6f7;}</style></defs><path class="cls-1" d="m142.33,0c-12.03,0-14.36,8.39-14.36,16.41s2.27,16.37,14.36,16.37,14.36-8.39,14.36-16.31S154.37,0,142.33,0Zm0,25.13c-5.07,0-5.38-4.02-5.38-8.72s.31-8.71,5.38-8.71,5.33,3.96,5.33,8.77-.26,8.66-5.33,8.66Z"/><rect class="cls-1" x="114.82" y=".53" width="8.87" height="31.78"/><path class="cls-1" d="m96.35.52h-11.88v31.78h11.4c9.67,0,14.47-6.54,14.47-16.1S105.85.52,96.35.52Zm-1.58,24.18h-1.43V8.13h1.64c4.33,0,6.65.84,6.65,8.02s-2.54,8.55-6.86,8.55Z"/><path class="cls-1" d="m70.53.53v17.79c0,5.07-1,6.6-4.38,6.6s-4.38-1.53-4.38-6.6V.53h-8.92v17.79c0,9.93,3.8,14.47,13.3,14.47s13.3-4.54,13.3-14.47V.53h-8.92Z"/><polygon class="cls-1" points="27.19 .53 27.19 8.13 34.16 8.13 34.16 32.31 42.92 32.31 42.92 8.13 49.94 8.13 49.94 .53 27.19 .53"/><path class="cls-1" d="m15.47,13.15c-3.01-.84-6.12-1.48-6.12-3.85,0-1.37,1.11-2.22,3.48-2.22,2.8,0,3.96,1.21,3.96,4.22h8.71C25.5,3.7,21.22,0,13.04,0S.58,3.54.58,9.87s4.17,7.81,9.87,9.56c4.65,1.43,6.7,1.74,6.7,3.85,0,1.74-1.37,2.59-3.8,2.59-3.11,0-4.49-1.32-4.49-4.54H0c0,7.65,4.28,11.46,12.78,11.46s13.09-4.07,13.09-10.29c0-5.12-2.96-7.29-10.4-9.34Z"/></svg>