<?xml version="1.0" encoding="UTF-8"?><svg id="Layer_1" xmlns="http://www.w3.org/2000/svg" viewBox="0 0 41.53 41.46"><g id="xUUS8M"><path d="m19.29,21.29c-6.41.48-12.76,1.82-19.29,1.46v-4c6.52-.49,12.89.98,19.45,1.45-4.97-4.29-10.44-7.81-14.8-12.71.97-.92,1.94-1.84,2.95-2.79,4.77,4.24,8.29,9.72,12.58,14.63-.46-6.48-1.82-12.81-1.48-19.34h4.09c.39,6.51-1.04,12.87-1.52,19.39,4.28-4.92,7.77-10.42,12.62-14.72.95.97,1.91,1.95,2.88,2.94-4.27,4.77-9.74,8.3-14.75,12.63,1.51-.17,2.87-.32,4.23-.47,3.2-.36,6.4-.79,9.61-1.07,1.72-.15,3.46-.06,5.19-.09.34,0,.47.12.46.45,0,1.1-.01,2.21,0,3.31,0,.33-.12.47-.46.45-2.45-.14-4.9-.24-7.34-.42-1.75-.13-3.5-.33-5.24-.53-1.81-.2-3.61-.43-5.41-.63-.29-.03-.59,0-1.09,0,4.97,4.34,10.42,7.87,14.76,12.74-.89.94-1.77,1.88-2.66,2.82-2.45-2.23-4.64-4.65-6.65-7.24-1.97-2.54-4-5.03-6-7.55-.07.03-.14.06-.21.09.06.71.1,1.42.17,2.13.16,1.49.33,2.98.51,4.46.2,1.7.45,3.39.62,5.09.11,1.1.12,2.21.16,3.31.05,1.31.08,2.62.12,3.94,0,.12,0,.25,0,.41h-3.97c-.22-3.25.04-6.49.41-9.73.36-3.22.71-6.44,1.08-9.82-.21.17-.34.24-.43.35-2.46,3.07-4.9,6.14-7.37,9.2-.64.8-1.35,1.54-2.05,2.3-.8.87-1.63,1.73-2.42,2.61-.38.42-.68.45-1.08,0-.65-.72-1.38-1.38-2.04-2.1-.1-.1-.07-.47.04-.59,3.21-3.79,7.3-6.57,11.1-9.69.99-.81,1.99-1.6,3-2.39.1-.08.23-.11.35-.16-.04-.05-.09-.11-.13-.16Z"/></g></svg>